# xmcd
#
# Track frame offsets:
#	150
#	17785
#	37502
#	56500
#	75532
#	91817
#	112775
#	132520
#	149987
#	167907
#	188037
#	203395
#	224960
#	245537
#	262195
#	277850
#
# Disc length: 4002 seconds
#
# Revision: 1
# Processed by: cddbd v1.5.1PL0 Copyright (c) Steve Scherf et al.
# Submitted via: CDex 1.50Beta5
#
DISCID=e30fa010
DTITLE=テレサ・テン - 演花集
DYEAR=1996
DGENRE=Pop
TTITLE0=浪花節だよ人生は
TTITLE1=北の旅人
TTITLE2=心凍らせて
TTITLE3=六本木ララバイ
TTITLE4=日本海
TTITLE5=無言坂
TTITLE6=命くれない
TTITLE7=恋唄綴り
TTITLE8=人生いろいろ
TTITLE9=想いで迷子
TTITLE10=乱されて
TTITLE11=片恋酒
TTITLE12=さざんかの宿
TTITLE13=夫婦しぐれ
TTITLE14=夢芝居
TTITLE15=川の流れのように
EXTD=
EXTT0=
EXTT1=
EXTT2=
EXTT3=
EXTT4=
EXTT5=
EXTT6=
EXTT7=
EXTT8=
EXTT9=
EXTT10=
EXTT11=
EXTT12=
EXTT13=
EXTT14=
EXTT15=
PLAYORDER=
